<svg xmlns="http://www.w3.org/2000/svg" viewBox="0 0 100 100"><circle cx="50.9" cy="50" r="45.9" fill-rule="evenodd" fill="#e9eefa"/><path d="M72.6 31.2c0-.5-.6-.8-1.1-.8l-41 4.6c-.5 0-.9.5-.8 1l2.4 21.6c0 .5.5.8 1.1.8l41-4.6c.5 0 .9-.5.8-1l-2.4-21.6z" fill="#ebb445"/><path d="M70.8 34c0-.5-.3-.8-.7-1.1-.3-.2-.8-.3-1.2-.3l-35.2 4c-1 .1-1.7.9-1.6 1.8L34 54.7c.1.8.8 1.4 1.7 1.4h.2l35.2-4c.4-.1.8-.3 1.1-.6.4-.3.5-.8.5-1.2L70.8 34zm-1.8.5l.2 2.1c-1.2-.1-2.3-.8-2.8-1.9l2.6-.2zm-32.5 3.7c0 .1 0 .2-.1.3l-1.7 2c-.1.1-.3.1-.4.1l-.3-2.2 2.5-.2zm-.7 16l-1.3-11.8c2.2-.5 3.7-2.3 3.9-4.5l26.3-3c.6 2.1 2.6 3.5 4.8 3.5h.1l1.3 11.8-35.1 4zm20.6-13.9c-2.7-2-6.8-1.4-8.9 1.2-1.7 2.2-1.4 5.1.8 6.8 1.4 1.1 2.9 1.4 4.1 1.3 2.2-.3 3.4-.8 4.4-1.8 2.4-2.2 2.2-5.6-.4-7.5z" fill="#fcd183"/><path d="M72.3 45.1l-40.9-5.3c-.5-.1-1 .2-1.1.7l-2.8 21.6c0 .5.3.9.8 1l40.9 5.3c.5.1 1-.2 1.1-.7l2.8-21.6c.1-.5-.3-1-.8-1z" fill="#98d3f3"/><path d="M69.3 47L34 42.3c-.4 0-.8 0-1.2.2-.4.3-.7.6-.7 1.1L30 59.3c-.1.5.1.9.4 1.2s.7.5 1.1.6l35.3 4.7h.3c.8 0 1.6-.6 1.7-1.3l2.1-15.7c0-.9-.6-1.6-1.6-1.8zm-.6 3.9c-1-.4-1.8-1.3-1.9-2.4l2.2.3-.3 2.1zm-32.5-6.4c-.4 1.2-1.5 2-2.7 2l.3-2.4 2.4.4zm-4 12.2c1.3.5 2.1 1.6 2.1 2.9l-2.4-.3.3-2.6zM67 64l-2.3-.3c.5-1 1.5-1.7 2.6-1.7l-.3 2zm.5-3.9c-2.1 0-4 1.3-4.7 3.3L36 59.8c.1-2.3-1.4-4.3-3.6-5l.9-6.5c2.2 0 4.1-1.5 4.7-3.6l26.8 3.6c.1 2.1 1.5 3.9 3.6 4.6l-.9 7.2zm-21.2-10c-2.2 1.7-2.6 4.6-.8 6.8 1.1 1.3 2.5 2.1 3.7 2.2 2.2.3 3.5 0 4.8-.6 2.8-1.7 3.4-5 1.3-7.5-2.2-2.5-6.4-2.9-9-.9z" fill="#cdecfb"/><path d="M16 26c0-2.3-1.9-4.3-4.3-4.3-2.3 0-4.3 1.9-4.3 4.3 0 2.3 1.9 4.3 4.3 4.3S16 28.4 16 26zm-6.7 0c0-1.3 1.1-2.4 2.4-2.4s2.4 1.1 2.4 2.4-1.1 2.4-2.4 2.4c-1.3.1-2.4-1.1-2.4-2.4zM97 61.3c0-1.4-1.1-2.5-2.5-2.5S92 59.9 92 61.3s1.2 2.5 2.5 2.5c1.3.1 2.5-1.1 2.5-2.5zm-2.6.7a.7.7 0 1 1 0-1.4.7.7 0 1 1 0 1.4zm-66.1 2l40.9 5.3h.2c.9 0 1.7-.7 1.9-1.5L73 54.7l1.3-.2c.5 0 .9-.3 1.2-.6.3-.4.5-.8.4-1.3L73.6 31c-.1-1-1.1-1.6-2.1-1.6l-41 4.6c-1 .1-1.7 1-1.7 2l.6 5-2.7 21c-.1.9.6 1.9 1.6 2zm45.4-14.9l.4 3.7-.9.1.5-3.8zm-2-17.8l1.5 13.2c-.2-.2-.5-.2-.8-.3l-13.3-1.7c-.4-1.1-1.1-2.2-2.2-3-3-2.2-7.7-1.6-10.1 1.3l-15.2-2H31l-.3-2.9 41-4.6zM56.9 42.2l-7.8-1c1-.8 2.3-1.2 3.6-1.2 1.1 0 2.3.3 3.1 1 .5.3.8.8 1.1 1.2zm-26.6 6.4l1-7.5v-.4l14.5 1.9 1.9.2 9.8 1.3 2 .3L72.2 46h.1l-.9 7.1-.2 1.8-1.6 12.6-40.9-5.3 1.6-13.6zm26.1 2.6c-.7-1.1-1.7-2.1-2.9-2.6-1.2-.6-2.6-.8-4-.6-.9.1-1.7.3-2.5.7-1.8.9-3.3 2.7-3.5 4.7-.3 2.5 1.3 4.9 3.3 6.1 2.3 1.3 5.4 1.3 7.6-.1 1.2-.7 2.1-1.6 2.6-2.8.4-.9.5-1.7.4-2.7s-.5-1.9-1-2.7zm-.9 3.7c-.1.6-.3 1.2-.7 1.7-.8 1.1-2.2 1.6-3.6 1.8-.8.1-1.7.1-2.5-.2-1.8-.5-3.4-2.2-3.4-4.2 0-1.2.6-2.3 1.5-3.1s2.1-1.2 3.2-1.2a5.73 5.73 0 0 1 3.4.8c1 .6 1.8 1.6 2.1 2.7.1.6.1 1.1 0 1.7zM40.1 74.3H10.8c-.5 0-.9.4-.9.9s.4.9.9.9h29.3c.5 0 .9-.4.9-.9s-.4-.9-.9-.9zm-32.9 0H3.1c-.5 0-.9.4-.9.9s.4.9.9.9h4.1c.5 0 .9-.4.9-.9s-.4-.9-.9-.9zm78.7 7.8H68.5c-.5 0-.9.4-.9.9s.4 1 .9 1h17.4c.5 0 .9-.4.9-.9s-.4-1-.9-1zm6 0h-2.8c-.5 0-.9.4-.9.9s.4.9.9.9h2.8c.5 0 .9-.4.9-.9s-.4-.9-.9-.9zm6 0h-2.3c-.5 0-.9.4-.9.9s.4.9.9.9h2.3c.5 0 .9-.4.9-.9s-.4-.9-.9-.9z" fill="#2e3a44"/></svg>